<svg width="1265" height="643" viewBox="0 0 1265 643" fill="none" xmlns="http://www.w3.org/2000/svg">
<path d="M0.915039 1.48193V642" stroke="#ECEBFC"/>
<path d="M110.119 1.48193V642" stroke="#ECEBFC"/>
<path d="M220.416 1.48193V642" stroke="#ECEBFC"/>
<path d="M331.814 1.48193V642" stroke="#ECEBFC"/>
<path d="M444.328 1.48193V642" stroke="#ECEBFC"/>
<path d="M557.967 1.48193V642" stroke="#ECEBFC"/>
<path d="M672.741 1.48193V642" stroke="#ECEBFC"/>
<path d="M788.664 1.48193V642" stroke="#ECEBFC"/>
<path d="M905.745 1.48193V642" stroke="#ECEBFC"/>
<path d="M1024 1.48193V642" stroke="#ECEBFC"/>
<path d="M1143.43 1.48193V642" stroke="#ECEBFC"/>
<path d="M1264.06 1.48193V642" stroke="#ECEBFC"/>
<path d="M0.915039 642H1264.06" stroke="#ECEBFC"/>
<path d="M0.915039 641.047H1264.06" stroke="#ECEBFC"/>
<path d="M0.915039 639.893H1264.06" stroke="#ECEBFC"/>
<path d="M0.915039 638.496H1264.06" stroke="#ECEBFC"/>
<path d="M0.915039 636.807H1264.06" stroke="#ECEBFC"/>
<path d="M0.915039 634.763H1264.06" stroke="#ECEBFC"/>
<path d="M0.915039 632.289H1264.06" stroke="#ECEBFC"/>
<path d="M0.915039 629.296H1264.06" stroke="#ECEBFC"/>
<path d="M0.915039 625.674H1264.06" stroke="#ECEBFC"/>
<path d="M0.915039 621.292H1264.06" stroke="#ECEBFC"/>
<path d="M0.915039 615.99H1264.06" stroke="#ECEBFC"/>
<path d="M0.915039 609.574H1264.06" stroke="#ECEBFC"/>
<path d="M0.915039 601.811H1264.06" stroke="#ECEBFC"/>
<path d="M0.915039 592.417H1264.06" stroke="#ECEBFC"/>
<path d="M0.915039 581.052H1264.06" stroke="#ECEBFC"/>
<path d="M0.915039 567.299H1264.06" stroke="#ECEBFC"/>
<path d="M0.915039 550.657H1264.06" stroke="#ECEBFC"/>
<path d="M0.915039 530.521H1264.06" stroke="#ECEBFC"/>
<path d="M0.915039 506.157H1264.06" stroke="#ECEBFC"/>
<path d="M0.915039 476.678H1264.06" stroke="#ECEBFC"/>
<path d="M0.915039 441.005H1264.06" stroke="#ECEBFC"/>
<path d="M0.915039 397.843H1264.06" stroke="#ECEBFC"/>
<path d="M0.915039 345.616H1264.06" stroke="#ECEBFC"/>
<path d="M0.915039 282.423H1264.06" stroke="#ECEBFC"/>
<path d="M0.915039 205.957H1264.06" stroke="#ECEBFC"/>
<path d="M0.915039 113.434H1264.06" stroke="#ECEBFC"/>
<path d="M0.915039 1.48193H1264.06" stroke="#ECEBFC"/>
</svg>
