<svg width="2609" height="2609" viewBox="0 0 2609 2609" fill="none" xmlns="http://www.w3.org/2000/svg">
<path d="M1407.36 942.132C1648.31 1010.57 1854.9 1113.12 1994.12 1223.58C2063.73 1278.81 2116.49 1336 2148.28 1391.88C2180.07 1447.75 2190.89 1502.27 2176.71 1552.19C2162.53 1602.12 2124.67 1642.81 2068.25 1673.63C2011.84 1704.45 1936.9 1725.38 1848.65 1735.78C1672.15 1756.56 1442.5 1735.22 1201.55 1666.78C960.599 1598.35 754.014 1495.8 614.791 1385.34C545.178 1330.11 492.427 1272.91 460.635 1217.04C428.843 1161.17 418.027 1106.65 432.207 1056.72C446.386 1006.8 484.244 966.105 540.658 935.284C597.074 904.462 672.012 883.535 760.264 873.14C936.764 852.35 1166.41 873.698 1407.36 942.132Z" stroke="#2E2E2E"/>
<path d="M1413.67 943.983C1653.39 1016.61 1858.15 1122.75 1995.43 1235.63C2064.07 1292.06 2115.81 1350.17 2146.62 1406.59C2177.44 1463.01 2187.3 1517.71 2172.25 1567.38C2157.2 1617.05 2118.64 1657.07 2061.7 1686.91C2004.75 1716.74 1929.46 1736.35 1841.04 1745.21C1664.2 1762.91 1434.96 1737.56 1195.24 1664.93C955.523 1592.3 750.758 1486.16 613.484 1373.29C544.847 1316.85 493.102 1258.75 462.289 1202.33C431.478 1145.91 421.615 1091.21 436.663 1041.54C451.712 991.869 490.274 951.842 547.218 922.01C604.163 892.178 679.455 872.562 767.874 863.709C944.711 846.002 1173.95 871.355 1413.67 943.983Z" stroke="#2E2E2E"/>
<path d="M1419.95 945.944C1658.36 1022.75 1861.24 1132.44 1996.52 1247.7C2064.17 1305.32 2114.89 1364.32 2144.71 1421.27C2174.54 1478.22 2183.44 1533.08 2167.53 1582.48C2151.62 1631.88 2112.36 1671.23 2054.91 1700.06C1997.45 1728.9 1921.83 1747.2 1833.26 1754.5C1656.15 1769.12 1427.38 1739.77 1188.97 1662.97C950.552 1586.17 747.671 1476.47 612.388 1361.22C544.746 1303.59 494.023 1244.59 464.2 1187.64C434.378 1130.7 425.471 1075.83 441.384 1026.43C457.297 977.033 496.552 937.686 554.008 908.852C611.465 880.018 687.088 861.719 775.648 854.411C952.767 839.793 1181.53 869.142 1419.95 945.944Z" stroke="#2E2E2E"/>
<path d="M1426.19 948.014C1663.22 1028.96 1864.16 1142.19 1997.41 1259.78C2064.04 1318.58 2113.72 1378.46 2142.55 1435.92C2171.37 1493.38 2179.32 1548.39 2162.55 1597.5C2145.77 1646.62 2105.84 1685.27 2047.89 1713.1C1989.94 1740.93 1914 1757.9 1825.33 1763.66C1647.98 1775.19 1419.77 1741.85 1182.73 1660.9C945.69 1579.95 744.754 1466.73 611.503 1349.13C544.877 1290.33 495.192 1230.46 466.367 1173C437.543 1115.54 429.595 1060.53 446.368 1011.41C463.141 962.299 503.077 923.642 561.026 895.816C618.978 867.989 694.909 851.013 783.583 845.251C960.93 833.727 1189.15 867.064 1426.19 948.014Z" stroke="#2E2E2E"/>
<path d="M1432.39 950.193C1667.98 1035.27 1866.91 1151.98 1998.08 1271.88C2063.67 1331.84 2112.31 1392.57 2140.12 1450.53C2167.94 1508.48 2174.93 1563.62 2157.3 1612.43C2139.67 1661.25 2099.07 1699.2 2040.64 1726.01C1982.21 1752.82 1906 1768.47 1817.24 1772.69C1639.72 1781.11 1412.12 1743.8 1176.53 1658.72C940.936 1573.65 742.007 1456.94 610.829 1337.03C545.239 1277.08 496.606 1216.35 468.788 1158.39C440.972 1100.44 433.985 1045.3 451.613 996.482C469.24 947.668 509.845 909.714 568.271 882.904C626.7 856.092 702.915 840.444 791.677 836.23C969.197 827.803 1196.8 865.118 1432.39 950.193Z" stroke="#2E2E2E"/>
<path d="M1438.55 952.48C1672.62 1041.65 1869.48 1161.82 1998.55 1283.99C2063.08 1345.08 2110.65 1406.65 2137.45 1465.09C2164.25 1523.52 2170.27 1578.77 2151.8 1627.27C2133.32 1675.77 2092.06 1713.01 2033.17 1738.8C1974.29 1764.58 1897.81 1778.9 1808.99 1781.56C1631.35 1786.89 1404.43 1745.61 1170.36 1656.44C936.294 1567.26 739.432 1447.1 610.366 1324.92C545.833 1263.83 498.267 1202.26 471.465 1143.83C444.664 1085.4 438.641 1030.14 457.118 981.645C475.595 933.146 516.855 895.906 575.74 870.12C634.628 844.332 711.105 830.016 799.927 827.352C977.567 822.024 1204.48 863.306 1438.55 952.48Z" stroke="#2E2E2E"/>
<path d="M1444.67 954.873C1677.15 1048.12 1871.88 1171.7 1998.8 1296.11C2062.26 1358.31 2108.74 1420.71 2134.52 1479.6C2160.3 1538.49 2165.35 1593.84 2146.03 1642.01C2126.71 1690.18 2084.81 1726.69 2025.48 1751.45C1966.15 1776.2 1889.44 1789.18 1800.58 1790.3C1622.88 1792.52 1396.72 1747.29 1164.24 1654.04C931.763 1560.8 737.029 1437.21 610.115 1312.8C546.657 1250.6 500.173 1188.21 474.395 1129.31C448.618 1070.42 443.56 1015.07 462.881 966.905C482.201 918.736 524.105 882.222 583.432 857.467C642.761 832.711 719.476 819.732 808.33 818.619C986.037 816.392 1212.2 861.628 1444.67 954.873Z" stroke="#2E2E2E"/>
<path d="M1450.75 957.373C1681.57 1054.66 1874.12 1181.62 1998.84 1308.23C2061.2 1371.53 2106.59 1434.73 2131.33 1494.06C2156.08 1553.39 2160.17 1608.82 2140.01 1656.64C2119.86 1704.47 2077.32 1740.25 2017.57 1763.96C1957.82 1787.68 1880.89 1799.32 1792.03 1798.88C1614.31 1798 1388.97 1748.83 1158.16 1651.54C927.346 1554.25 734.798 1427.29 610.075 1300.68C547.712 1237.38 502.325 1174.19 477.578 1114.85C452.833 1055.52 448.742 1000.09 468.9 952.269C489.058 904.444 531.593 868.667 591.343 844.951C651.094 821.234 728.024 809.596 816.885 810.034C994.603 810.909 1219.94 860.084 1450.75 957.373Z" stroke="#2E2E2E"/>
<path d="M1456.79 959.979C1685.87 1061.28 1876.17 1191.58 1998.67 1320.35C2059.92 1384.73 2104.19 1448.71 2127.9 1508.46C2151.61 1568.21 2154.73 1623.71 2133.74 1671.17C2112.75 1718.64 2069.6 1753.67 2009.44 1776.34C1949.29 1799.01 1872.16 1809.3 1783.33 1807.31C1605.65 1803.34 1381.21 1750.24 1152.13 1648.93C923.044 1547.63 732.742 1417.33 610.247 1288.57C548.998 1224.19 504.72 1160.21 481.014 1100.45C457.307 1040.7 454.184 985.206 475.174 937.74C496.164 890.274 539.317 855.245 599.471 832.576C659.627 809.905 736.749 799.611 825.588 801.6C1003.26 805.576 1227.71 858.677 1456.79 959.979Z" stroke="#2E2E2E"/>
<path d="M1462.78 962.69C1690.06 1067.97 1878.05 1201.58 1998.28 1332.46C2058.4 1397.9 2101.55 1462.64 2124.21 1522.8C2146.87 1582.96 2149.03 1638.5 2127.21 1685.59C2105.4 1732.68 2061.64 1766.95 2001.1 1788.57C1940.56 1810.19 1863.27 1819.13 1774.48 1815.59C1596.9 1808.52 1373.42 1751.51 1146.14 1646.22C918.858 1540.94 730.859 1407.33 610.63 1276.45C550.514 1211.01 507.36 1146.27 484.699 1086.11C462.04 1025.95 459.885 970.416 481.7 923.323C503.515 876.231 547.273 841.961 607.814 820.344C668.357 798.727 745.646 789.781 834.437 793.32C1012.02 800.396 1235.5 857.406 1462.78 962.69Z" stroke="#2E2E2E"/>
<path d="M1468.72 965.506C1694.12 1074.74 1879.76 1211.61 1997.69 1344.56C2056.65 1411.04 2098.67 1476.53 2120.28 1537.08C2141.88 1597.62 2143.07 1653.19 2120.44 1699.89C2097.8 1746.6 2053.45 1780.1 1992.54 1800.65C1931.63 1821.21 1854.2 1828.81 1765.48 1823.72C1588.06 1813.55 1365.6 1752.64 1140.2 1643.41C914.79 1534.17 729.15 1397.31 611.224 1264.35C552.26 1197.87 510.242 1132.39 488.634 1071.84C467.028 1011.29 465.843 955.727 488.477 909.023C511.11 862.318 555.46 828.817 616.368 808.26C677.279 787.703 754.713 780.107 843.429 785.195C1020.86 795.369 1243.31 856.271 1468.72 965.506Z" stroke="#2E2E2E"/>
<path d="M1474.61 968.423C1698.07 1081.58 1881.3 1221.66 1996.88 1356.66C2054.68 1424.16 2095.55 1490.36 2116.09 1551.28C2136.64 1612.19 2136.86 1667.77 2113.41 1714.07C2089.97 1760.37 2045.04 1793.1 1983.78 1812.59C1922.52 1832.08 1844.97 1838.32 1756.35 1831.69C1579.13 1818.42 1357.77 1753.64 1134.31 1640.49C910.84 1527.34 727.618 1387.25 612.03 1252.26C554.235 1184.76 513.366 1118.55 492.819 1057.64C472.272 996.723 472.058 941.143 495.503 894.841C518.948 848.539 563.875 815.816 625.133 796.326C686.394 776.835 763.948 770.592 852.562 777.227C1029.79 790.497 1251.14 855.271 1474.61 968.423Z" stroke="#2E2E2E"/>
<path d="M1480.45 971.444C1701.9 1088.48 1882.65 1231.74 1995.87 1368.73C2052.48 1437.23 2092.18 1504.14 2111.66 1565.4C2131.14 1626.67 2130.39 1682.24 2106.14 1728.13C2081.89 1774.01 2036.4 1805.95 1974.81 1824.37C1913.22 1842.78 1835.57 1847.67 1747.08 1839.49C1570.12 1823.13 1349.92 1754.5 1128.47 1637.47C907.011 1520.43 726.261 1377.17 613.046 1240.18C556.438 1171.68 516.731 1104.77 497.25 1043.51C477.77 982.247 478.525 926.671 502.775 880.785C527.025 834.899 572.516 802.966 634.105 784.548C695.697 766.129 773.348 761.24 861.832 769.42C1038.8 785.781 1258.99 854.409 1480.45 971.444Z" stroke="#2E2E2E"/>
<path d="M1486.23 974.565C1705.61 1095.45 1883.83 1241.84 1994.64 1380.79C2050.04 1450.26 2088.58 1517.86 2106.99 1579.45C2125.4 1641.04 2123.67 1696.6 2098.62 1742.05C2073.58 1787.51 2027.53 1818.64 1965.63 1835.98C1903.73 1853.33 1826 1856.86 1737.68 1847.14C1561.02 1827.69 1342.06 1755.23 1122.68 1634.35C903.302 1513.46 725.08 1367.07 614.274 1228.12C558.87 1158.65 520.336 1091.05 501.928 1029.46C483.52 967.867 485.244 912.314 510.291 866.858C535.338 821.402 581.38 790.267 643.281 772.927C705.185 755.586 782.91 752.053 871.238 761.776C1047.89 781.223 1266.85 853.683 1486.23 974.565Z" stroke="#2E2E2E"/>
<path d="M1491.96 977.789C1709.2 1102.48 1884.84 1251.96 1993.2 1392.82C2047.39 1463.26 2084.73 1531.51 2102.06 1593.42C2119.4 1655.32 2116.7 1710.84 2090.86 1755.85C2065.03 1800.86 2018.45 1831.19 1956.26 1847.44C1894.06 1863.7 1816.28 1865.88 1728.14 1854.61C1551.85 1832.09 1334.19 1755.82 1116.95 1631.12C899.715 1506.43 724.075 1356.95 615.71 1216.09C561.527 1145.66 524.18 1077.4 506.849 1015.5C489.518 953.592 492.213 898.077 518.049 853.065C543.885 808.053 590.463 777.727 652.658 761.47C714.854 745.211 792.629 743.036 880.774 754.299C1057.06 776.826 1274.72 853.097 1491.96 977.789Z" stroke="#2E2E2E"/>
<path d="M1497.63 981.112C1712.66 1109.58 1885.67 1262.1 1991.56 1404.83C2044.5 1476.2 2080.65 1545.09 2096.9 1607.29C2113.15 1669.49 2109.49 1724.95 2082.87 1769.5C2056.25 1814.06 2009.15 1843.57 1946.68 1858.74C1884.21 1873.91 1806.41 1874.73 1718.47 1861.93C1542.61 1836.32 1326.31 1756.27 1111.28 1627.8C896.252 1499.34 723.247 1346.81 617.358 1204.08C564.412 1132.72 528.261 1063.82 512.013 1001.62C495.766 939.423 499.429 883.964 526.047 839.41C552.665 794.856 599.765 765.347 662.234 750.177C724.705 735.007 802.506 734.189 890.44 746.989C1066.31 772.589 1282.61 852.647 1497.63 981.112Z" stroke="#2E2E2E"/>
<path d="M1503.25 984.532C1716 1116.73 1886.32 1272.25 1989.7 1416.81C2041.39 1489.09 2076.33 1558.6 2091.49 1621.08C2106.65 1683.55 2102.02 1738.94 2074.63 1783.02C2047.24 1827.1 1999.63 1855.78 1936.91 1869.86C1874.18 1883.94 1796.38 1883.4 1708.68 1869.07C1533.29 1840.4 1318.42 1756.58 1105.67 1624.38C892.913 1492.18 722.597 1336.66 619.214 1192.11C567.522 1119.83 532.579 1050.31 517.419 987.836C502.26 925.365 506.89 869.978 534.281 825.895C561.673 781.812 609.281 753.13 672.005 739.053C734.731 724.975 812.535 725.515 900.233 739.848C1075.63 768.513 1290.49 852.334 1503.25 984.532Z" stroke="#2E2E2E"/>
<path d="M1508.8 988.05C1719.21 1123.94 1886.79 1282.41 1987.63 1428.75C2038.06 1501.92 2071.78 1572.04 2085.85 1634.76C2099.92 1697.49 2094.32 1752.79 2066.16 1796.39C2038.01 1839.99 1989.9 1867.83 1926.94 1880.81C1863.98 1893.79 1786.2 1891.9 1698.77 1876.03C1523.9 1844.31 1310.53 1756.75 1100.11 1620.86C889.699 1484.97 722.123 1326.5 621.279 1180.16C570.857 1106.99 537.132 1036.88 523.065 974.149C508.998 911.423 514.594 856.125 542.751 812.527C570.908 768.929 619.009 741.082 681.969 728.101C744.931 715.121 822.713 717.018 910.148 732.88C1085.01 764.602 1298.39 852.159 1508.8 988.05Z" stroke="#2E2E2E"/>
<path d="M1514.29 991.664C1722.3 1131.21 1887.09 1292.58 1985.36 1440.65C2034.5 1514.69 2067 1585.39 2079.97 1648.35C2092.94 1711.31 2086.38 1766.51 2057.46 1809.61C2028.55 1852.71 1979.97 1879.71 1916.79 1891.59C1853.61 1903.47 1775.87 1900.21 1688.73 1882.83C1514.44 1848.06 1302.63 1756.79 1094.62 1617.25C886.612 1477.71 721.827 1316.34 623.553 1168.26C574.415 1094.22 541.919 1023.53 528.949 960.562C515.979 897.599 522.539 842.407 551.452 799.308C580.366 756.208 628.946 729.204 692.123 717.325C755.302 705.445 833.039 708.7 920.184 726.084C1094.47 760.854 1306.28 852.122 1514.29 991.664Z" stroke="#2E2E2E"/>
<path d="M1519.72 995.374C1725.26 1138.53 1887.21 1302.75 1982.88 1452.52C2030.72 1527.4 2061.98 1598.65 2073.85 1661.83C2085.71 1725.01 2078.19 1780.08 2048.53 1822.67C2018.87 1865.26 1969.83 1891.41 1906.45 1902.19C1843.07 1912.96 1765.41 1908.35 1678.58 1889.45C1504.93 1851.64 1294.74 1756.69 1089.2 1613.54C883.652 1470.39 721.709 1306.17 626.033 1156.4C578.195 1081.51 546.938 1010.26 535.069 947.08C523.2 883.901 530.722 828.832 560.383 786.243C590.044 743.654 639.088 717.503 702.463 706.728C765.84 695.952 843.508 700.563 930.336 719.466C1103.99 757.272 1314.18 852.223 1519.72 995.374Z" stroke="#2E2E2E"/>
<path d="M1525.08 999.179C1728.09 1145.9 1887.15 1312.92 1980.19 1464.33C2026.72 1540.04 2056.73 1611.83 2067.49 1675.21C2078.26 1738.58 2069.77 1793.51 2039.37 1835.58C2008.97 1877.64 1959.48 1902.93 1895.93 1912.6C1832.37 1922.27 1754.8 1916.3 1668.31 1895.89C1495.34 1855.06 1286.85 1756.45 1083.83 1609.74C880.82 1463.02 721.767 1296 628.72 1144.58C582.196 1068.87 552.187 997.086 541.422 933.707C530.658 870.331 539.14 815.401 569.54 773.337C599.94 731.272 649.433 705.981 712.986 696.313C776.541 686.645 854.117 692.611 940.602 713.027C1113.57 753.857 1322.07 852.462 1525.08 999.179Z" stroke="#2E2E2E"/>
<path d="M1530.37 1003.07C1730.8 1153.31 1886.91 1323.08 1977.3 1476.1C2022.5 1552.61 2051.25 1624.91 2060.9 1688.47C2070.56 1752.02 2061.12 1806.79 2029.99 1848.32C1998.86 1889.85 1948.94 1914.27 1885.22 1922.83C1821.51 1931.39 1744.05 1924.07 1657.93 1902.15C1485.71 1858.3 1278.96 1756.08 1078.54 1605.84C878.118 1455.6 722.004 1285.83 631.614 1132.81C586.418 1056.3 557.667 984.003 548.01 920.446C538.353 856.891 547.793 802.118 578.922 760.59C610.051 719.063 659.978 694.639 723.69 686.082C787.405 677.525 864.865 684.844 950.98 706.766C1123.21 750.609 1329.95 852.837 1530.37 1003.07Z" stroke="#2E2E2E"/>
<path d="M1535.6 1007.06C1733.37 1160.78 1886.5 1333.25 1974.2 1487.82C2018.06 1565.11 2045.54 1637.89 2054.09 1701.61C2062.63 1765.32 2052.24 1819.92 2020.39 1860.9C1988.54 1901.88 1938.2 1925.43 1874.34 1932.87C1810.49 1940.32 1733.17 1931.65 1647.45 1908.23C1476.01 1861.38 1271.08 1755.56 1073.31 1601.85C875.544 1448.14 722.418 1275.67 634.712 1121.09C590.858 1043.81 563.373 971.019 554.827 907.303C546.28 843.589 556.675 788.989 588.524 748.011C620.373 707.033 670.719 683.485 734.57 676.041C798.424 668.597 875.745 677.267 961.465 700.688C1132.9 747.53 1337.83 853.351 1535.6 1007.06Z" stroke="#2E2E2E"/>
<path d="M1540.76 1011.14C1735.81 1168.28 1885.91 1343.4 1970.9 1499.48C2013.4 1577.52 2039.61 1650.78 2047.04 1714.63C2054.48 1778.49 2043.13 1832.9 2010.57 1873.31C1978.01 1913.73 1927.26 1936.39 1863.29 1942.72C1799.32 1949.05 1722.16 1939.03 1636.86 1914.12C1466.27 1864.29 1263.22 1754.91 1068.16 1597.77C873.102 1440.63 723.009 1265.51 638.014 1109.43C595.516 1031.39 569.306 958.136 561.872 894.28C554.439 830.428 565.785 776.017 598.344 735.601C630.904 695.185 681.653 672.519 745.625 666.191C809.599 659.863 886.757 669.88 972.054 694.794C1142.65 744.621 1345.7 854.002 1540.76 1011.14Z" stroke="#2E2E2E"/>
<path d="M1545.84 1015.31C1738.12 1175.83 1885.14 1353.54 1967.4 1511.08C2008.52 1589.85 2033.45 1663.56 2039.77 1727.53C2046.09 1791.5 2033.79 1845.71 2000.53 1885.55C1967.27 1925.39 1916.14 1947.17 1852.07 1952.38C1787.99 1957.59 1711.02 1946.23 1626.17 1919.83C1456.47 1867.03 1255.36 1754.12 1063.08 1593.6C870.792 1433.08 723.777 1255.37 641.519 1097.83C600.39 1019.06 575.462 945.358 569.144 881.383C562.826 817.41 575.12 763.206 608.38 723.365C641.64 683.523 692.777 661.746 756.849 656.535C820.924 651.324 897.895 662.687 982.745 689.086C1152.44 741.882 1353.55 854.791 1545.84 1015.31Z" stroke="#2E2E2E"/>
<path d="M1550.85 1019.57C1740.3 1183.42 1884.19 1363.67 1963.69 1522.62C2003.44 1602.1 2027.07 1676.22 2032.27 1740.3C2037.47 1804.37 2024.24 1858.35 1990.29 1897.61C1956.34 1936.86 1904.83 1957.75 1840.67 1961.84C1776.52 1965.93 1699.76 1953.22 1615.38 1925.35C1446.63 1869.6 1247.52 1753.2 1058.07 1589.35C868.612 1425.49 724.722 1245.24 645.226 1086.29C605.477 1006.82 581.839 932.69 576.639 868.615C571.439 804.541 584.677 750.56 618.627 711.305C652.577 672.05 704.086 651.168 768.24 647.077C832.396 642.985 909.157 655.689 993.533 683.565C1162.28 739.315 1361.39 855.716 1550.85 1019.57Z" stroke="#2E2E2E"/>
<path d="M1555.78 1023.91C1742.35 1191.05 1883.07 1373.78 1959.78 1534.09C1998.14 1614.25 2020.48 1688.78 2024.56 1752.94C2028.64 1817.09 2014.46 1870.83 1979.83 1909.49C1945.2 1948.14 1893.33 1968.12 1829.12 1971.1C1764.9 1974.07 1688.37 1960.02 1604.5 1930.68C1436.75 1871.99 1239.7 1752.14 1053.13 1585C866.566 1417.87 725.844 1235.14 649.134 1074.82C610.778 994.665 588.438 920.136 584.356 855.979C580.275 791.825 594.453 738.083 629.083 699.426C663.714 660.77 715.579 640.79 779.794 637.819C844.012 634.848 920.54 648.889 1004.42 678.233C1172.17 736.92 1369.22 856.778 1555.78 1023.91Z" stroke="#2E2E2E"/>
<path d="M1560.64 1028.34C1744.26 1198.7 1881.77 1383.87 1955.67 1545.49C1992.62 1626.31 2013.66 1701.22 2016.62 1765.43C2019.58 1829.65 2004.47 1883.14 1969.17 1921.18C1933.87 1959.23 1881.66 1978.3 1817.41 1980.15C1753.15 1982 1676.87 1966.62 1593.52 1935.82C1426.82 1874.22 1231.89 1750.94 1048.27 1580.57C864.654 1410.21 727.142 1225.05 653.242 1063.42C616.291 982.605 595.254 907.697 592.293 843.479C589.333 779.263 604.446 725.777 639.746 687.731C675.045 649.684 727.252 630.613 791.509 628.763C855.769 626.913 932.04 642.288 1015.39 673.091C1182.09 734.697 1377.02 857.976 1560.64 1028.34Z" stroke="#2E2E2E"/>
<path d="M1565.42 1032.85C1746.04 1206.4 1880.3 1393.93 1951.37 1556.82C1986.9 1638.27 2006.63 1713.53 2008.47 1777.79C2010.31 1842.05 1994.26 1895.26 1958.3 1932.69C1922.35 1970.11 1869.81 1988.27 1805.53 1989C1741.25 1989.73 1665.26 1973.02 1582.46 1940.77C1416.86 1876.26 1224.11 1749.6 1043.49 1576.06C862.876 1402.52 728.616 1214.98 657.548 1052.09C622.013 970.644 602.287 895.381 600.447 831.121C598.608 766.863 614.652 713.648 650.61 676.224C686.569 638.8 739.1 620.642 803.38 619.914C867.662 619.186 943.653 635.89 1026.45 668.143C1192.06 732.648 1384.8 859.311 1565.42 1032.85Z" stroke="#2E2E2E"/>
<path d="M1570.12 1037.45C1747.68 1214.12 1878.65 1403.97 1946.86 1568.07C1980.97 1650.13 1999.38 1725.73 2000.1 1790.01C2000.82 1854.29 1983.85 1907.21 1947.24 1944.01C1910.63 1980.8 1857.79 1998.03 1793.51 1997.64C1729.23 1997.25 1653.54 1979.22 1571.31 1945.53C1406.86 1878.14 1216.36 1748.13 1038.79 1571.46C861.231 1394.8 730.265 1204.95 662.05 1040.84C627.942 958.785 609.533 883.189 608.815 818.907C608.097 754.627 625.068 701.7 661.674 664.909C698.28 628.118 751.12 610.881 815.402 611.274C879.688 611.668 955.376 629.695 1037.6 663.389C1202.05 730.775 1392.56 860.781 1570.12 1037.45Z" stroke="#2E2E2E"/>
<path d="M1574.74 1042.13C1749.19 1221.87 1876.82 1413.97 1942.17 1579.24C1974.84 1661.88 1991.92 1737.79 1991.52 1802.07C1991.11 1866.36 1973.22 1918.98 1935.98 1955.13C1898.74 1991.27 1845.61 2007.58 1781.34 2006.07C1717.07 2004.55 1641.71 1985.21 1560.08 1950.08C1396.83 1879.84 1208.63 1746.53 1034.17 1566.79C859.722 1387.05 732.089 1194.94 666.749 1029.67C634.078 947.031 616.991 871.125 617.395 806.839C617.799 742.557 635.691 689.935 672.934 653.788C710.176 617.641 763.309 601.328 827.575 602.844C891.844 604.359 967.206 623.705 1048.83 658.829C1212.08 729.074 1400.29 862.386 1574.74 1042.13Z" stroke="#2E2E2E"/>
<path d="M1579.28 1046.88C1750.57 1229.64 1874.83 1423.94 1937.27 1590.33C1968.5 1673.53 1984.26 1749.72 1982.73 1813.99C1981.2 1878.25 1962.4 1930.56 1924.53 1966.05C1886.66 2001.54 1833.25 2016.92 1769.02 2014.29C1704.79 2011.65 1629.78 1990.99 1548.78 1954.45C1386.78 1881.36 1200.93 1744.79 1029.64 1562.03C858.349 1379.27 734.088 1184.97 671.642 1018.58C640.418 935.385 624.658 859.193 626.184 794.924C627.71 730.658 646.518 678.357 684.385 642.865C722.253 607.374 775.662 591.991 839.892 594.628C904.125 597.265 979.138 617.923 1060.14 654.466C1222.14 727.549 1407.99 864.126 1579.28 1046.88Z" stroke="#2E2E2E"/>
<path d="M1583.73 1051.72C1751.8 1237.44 1872.65 1433.88 1932.19 1601.33C1961.95 1685.06 1976.38 1761.52 1973.73 1825.75C1971.09 1889.98 1951.37 1941.94 1912.89 1976.77C1874.41 2011.59 1820.74 2026.04 1756.56 2022.29C1692.39 2018.53 1617.74 1996.56 1537.39 1958.61C1376.7 1882.71 1193.26 1742.91 1025.18 1557.19C857.111 1371.47 736.26 1175.03 676.727 1007.58C646.961 923.853 632.533 847.397 635.18 783.165C637.827 718.935 657.545 666.97 696.026 632.145C734.507 597.32 788.177 582.871 852.351 586.629C916.528 590.386 991.169 612.35 1071.52 650.301C1232.22 726.201 1415.66 866 1583.73 1051.72Z" stroke="#2E2E2E"/>
<path d="M1588.1 1056.63C1752.9 1245.26 1870.31 1443.78 1926.91 1612.24C1955.21 1696.48 1968.3 1773.17 1964.53 1837.35C1960.77 1901.52 1940.14 1953.14 1901.06 1987.28C1861.98 2021.43 1808.06 2034.94 1743.97 2030.07C1679.86 2025.19 1605.62 2001.93 1525.94 1962.58C1366.59 1883.88 1185.62 1740.91 1020.82 1552.28C856.009 1363.66 738.605 1165.14 682.004 996.67C653.703 912.435 640.612 835.739 644.38 771.563C648.148 707.39 668.769 655.776 707.852 621.628C746.936 587.48 800.849 573.97 864.948 578.847C929.049 583.724 1003.3 606.988 1082.97 646.335C1242.32 725.028 1423.29 868.007 1588.1 1056.63Z" stroke="#2E2E2E"/>
<path d="M1592.38 1061.62C1753.87 1253.09 1867.79 1453.63 1921.44 1623.06C1948.27 1707.77 1960.02 1784.69 1955.13 1848.79C1950.25 1912.89 1928.73 1964.13 1889.05 1997.59C1849.38 2031.05 1795.24 2043.62 1731.24 2037.63C1667.23 2031.63 1593.4 2007.07 1514.42 1966.34C1356.47 1884.88 1178.02 1738.76 1016.53 1547.29C855.045 1355.82 741.123 1155.28 687.471 985.853C660.644 901.137 648.893 824.224 653.781 760.124C658.668 696.026 680.187 644.78 719.86 611.319C759.534 577.859 813.675 565.292 877.679 571.287C941.685 577.282 1015.51 601.837 1094.49 642.569C1252.44 724.031 1430.89 870.147 1592.38 1061.62Z" stroke="#2E2E2E"/>
<path d="M1596.57 1066.68C1754.7 1260.94 1865.1 1463.44 1915.79 1633.78C1941.13 1718.95 1951.54 1796.06 1945.53 1860.06C1939.53 1924.06 1917.12 1974.93 1876.87 2007.69C1836.62 2040.45 1782.26 2052.07 1718.37 2044.96C1654.48 2037.85 1581.09 2012.01 1502.84 1969.91C1346.33 1885.7 1170.46 1736.49 1012.34 1542.23C854.216 1347.97 743.812 1145.47 693.125 975.134C667.781 889.964 657.374 812.857 663.38 748.852C669.385 684.849 691.795 633.986 732.046 601.223C772.297 568.46 826.65 556.84 890.539 563.951C954.431 571.062 1027.82 596.902 1106.07 639.006C1262.58 723.213 1438.45 872.42 1596.57 1066.68Z" stroke="#2E2E2E"/>
<path d="M1600.68 1071.82C1755.39 1268.81 1862.24 1473.2 1909.95 1644.4C1933.8 1730 1942.86 1807.28 1935.74 1871.17C1928.62 1935.05 1905.32 1985.52 1864.51 2017.57C1823.69 2049.63 1769.14 2060.3 1705.39 2052.07C1641.63 2043.85 1568.7 2016.73 1491.2 1973.27C1336.18 1886.34 1162.94 1734.09 1008.23 1537.1C853.525 1340.11 746.672 1135.71 698.965 964.516C675.111 878.916 666.052 801.639 673.174 737.749C680.295 673.86 703.589 623.397 744.406 591.341C785.223 559.285 839.77 548.616 903.525 556.84C967.284 565.065 1040.21 592.183 1117.72 635.646C1272.73 722.571 1445.97 874.825 1600.68 1071.82Z" stroke="#2E2E2E"/>
<path d="M1604.69 1077.02C1755.94 1276.68 1859.21 1482.91 1903.92 1654.91C1926.28 1740.92 1933.99 1818.34 1925.75 1882.1C1917.52 1945.85 1893.35 1995.9 1851.98 2027.24C1810.61 2058.58 1755.88 2068.29 1692.28 2058.96C1628.67 2049.62 1556.23 2021.23 1479.5 1976.43C1326.02 1886.81 1155.47 1731.55 1004.22 1531.89C852.972 1332.23 749.702 1126 704.99 953.999C682.634 867.996 674.925 790.573 683.161 726.817C691.396 663.062 715.567 613.013 756.937 581.674C798.307 550.336 853.032 540.62 916.635 549.956C980.24 559.293 1052.68 587.679 1129.42 632.488C1282.89 722.105 1453.45 877.36 1604.69 1077.02Z" stroke="#2E2E2E"/>
<path d="M1608.62 1082.3C1756.36 1284.57 1856.01 1492.56 1897.72 1665.32C1918.57 1751.7 1924.92 1829.25 1915.58 1892.85C1906.23 1956.45 1881.19 2006.07 1839.28 2036.68C1797.37 2067.3 1742.48 2076.05 1679.05 2065.61C1615.62 2055.17 1543.68 2025.52 1467.74 1979.38C1315.86 1887.1 1148.03 1728.89 1000.3 1526.62C852.556 1324.35 752.901 1116.35 711.198 943.59C690.346 857.21 683.989 779.665 693.336 716.061C702.683 652.46 727.724 602.841 769.635 572.229C811.546 541.617 866.432 532.858 929.862 543.303C993.294 553.748 1065.23 583.394 1141.17 629.535C1293.06 721.817 1460.88 880.025 1608.62 1082.3Z" stroke="#2E2E2E"/>
<path d="M1612.45 1087.64C1756.64 1292.46 1852.65 1502.16 1891.33 1675.62C1910.67 1762.35 1915.67 1840 1905.22 1903.43C1894.76 1966.86 1868.86 2016.03 1826.42 2045.91C1783.98 2075.78 1728.95 2083.58 1665.71 2072.03C1602.47 2060.48 1531.06 2029.58 1455.94 1982.12C1305.69 1887.21 1140.65 1726.09 996.464 1521.28C852.278 1316.46 756.268 1106.75 717.586 933.292C698.245 846.561 693.243 768.917 703.698 705.486C714.154 642.058 740.057 592.883 782.496 563.007C824.934 533.131 879.965 525.331 943.203 536.881C1006.44 548.432 1077.85 579.329 1152.98 626.789C1303.23 721.707 1468.26 882.82 1612.45 1087.64Z" stroke="#2E2E2E"/>
<path d="M1616.19 1093.05C1756.78 1300.35 1849.11 1511.7 1884.76 1685.81C1902.58 1772.86 1906.23 1850.58 1894.67 1913.82C1883.11 1977.06 1856.35 2025.77 1813.4 2054.9C1770.45 2084.03 1715.29 2090.87 1652.26 2078.22C1589.23 2065.57 1518.37 2033.43 1444.09 1984.67C1295.52 1887.14 1133.32 1723.17 992.727 1515.87C852.137 1308.56 759.802 1097.21 724.154 923.106C706.329 836.051 702.682 758.331 714.243 695.093C725.804 631.857 752.562 583.141 795.515 554.01C838.469 524.88 893.627 518.041 956.654 530.693C1019.68 543.346 1090.54 575.485 1164.83 624.248C1313.4 721.775 1475.6 885.743 1616.19 1093.05Z" stroke="#2E2E2E"/>
<path d="M1619.83 1098.52C1756.78 1308.24 1845.41 1521.17 1878.02 1695.88C1894.32 1783.23 1896.61 1861 1883.95 1924.03C1871.28 1987.05 1843.68 2035.29 1800.22 2063.67C1756.77 2092.05 1701.5 2097.92 1638.7 2084.17C1575.91 2070.42 1505.62 2037.05 1432.2 1987C1285.35 1886.89 1126.04 1720.12 989.086 1510.39C852.135 1300.67 763.502 1087.74 730.898 913.036C714.596 825.683 712.306 747.911 724.969 684.884C737.631 621.859 765.235 573.618 808.69 545.242C852.146 516.865 907.415 510.99 970.211 524.74C1033.01 538.491 1103.3 571.861 1176.72 621.914C1323.57 722.018 1482.88 888.793 1619.83 1098.52Z" stroke="#2E2E2E"/>
<path d="M1623.37 1104.05C1756.64 1316.14 1841.55 1530.58 1871.1 1705.83C1885.87 1793.45 1886.81 1871.25 1873.04 1934.05C1859.28 1996.84 1830.84 2044.59 1786.9 2072.21C1742.95 2099.82 1687.59 2104.73 1625.04 2089.89C1562.5 2075.04 1492.8 2040.45 1420.26 1989.12C1275.19 1886.47 1118.81 1716.94 985.539 1504.86C852.27 1292.78 767.366 1078.33 737.816 903.086C723.041 815.461 722.109 737.662 735.87 674.865C749.63 612.071 778.072 564.319 822.016 536.705C865.96 509.092 921.323 504.182 983.87 519.026C1046.42 533.871 1116.11 568.463 1188.65 619.789C1333.73 722.441 1490.11 891.97 1623.37 1104.05Z" stroke="#2E2E2E"/>
<path d="M1626.82 1109.65C1756.37 1324.03 1837.52 1539.92 1864.01 1715.65C1877.25 1803.52 1876.83 1881.33 1861.97 1943.87C1847.12 2006.42 1817.85 2053.67 1773.43 2080.51C1729.01 2107.35 1673.57 2111.29 1611.29 2095.36C1549.01 2079.43 1479.93 2043.62 1408.3 1991.04C1265.03 1885.87 1111.64 1713.64 982.09 1499.26C852.542 1284.88 771.395 1068.99 744.907 893.257C731.664 805.388 732.089 727.584 746.944 665.037C761.798 602.493 791.069 555.245 835.488 528.402C879.908 501.56 935.348 497.617 997.626 513.55C1059.91 529.484 1128.99 565.287 1200.62 617.872C1343.88 723.04 1497.28 895.273 1626.82 1109.65Z" stroke="#2E2E2E"/>
<path d="M1630.17 1115.31C1755.96 1331.91 1833.33 1549.19 1856.75 1725.36C1868.45 1813.44 1866.67 1891.23 1850.73 1953.51C1834.78 2015.78 1804.69 2062.51 1759.81 2088.58C1714.93 2114.64 1659.43 2117.61 1597.44 2100.6C1535.45 2083.58 1467 2046.57 1396.3 1992.75C1254.89 1885.1 1104.53 1710.21 978.74 1493.61C852.953 1277 775.585 1059.73 752.169 883.554C740.461 795.468 742.245 717.683 758.189 655.405C774.132 593.129 804.223 546.399 849.104 520.335C893.985 494.272 949.486 491.298 1011.48 508.316C1073.47 525.334 1141.91 562.337 1212.62 616.164C1354.02 723.817 1504.39 898.7 1630.17 1115.31Z" stroke="#2E2E2E"/>
<path d="M1633.43 1121.02C1755.41 1339.79 1828.98 1558.38 1849.32 1734.93C1859.48 1823.21 1856.34 1900.95 1839.31 1962.94C1822.29 2024.93 1791.39 2071.13 1746.06 2096.4C1700.73 2121.68 1645.18 2123.69 1583.5 2105.59C1521.81 2087.49 1454.03 2049.3 1384.27 1994.25C1244.77 1884.14 1097.48 1706.66 975.488 1487.89C853.5 1269.13 779.936 1050.53 759.599 873.981C749.429 785.703 752.57 707.961 769.599 645.971C786.627 583.983 817.529 537.785 862.858 512.509C908.186 487.233 963.731 485.228 1025.41 503.325C1087.1 521.423 1154.89 559.615 1224.64 614.667C1364.15 724.771 1511.44 902.252 1633.43 1121.02Z" stroke="#2E2E2E"/>
<path d="M1636.58 1126.79C1754.73 1347.65 1824.47 1567.5 1841.72 1744.38C1850.35 1832.82 1845.85 1910.49 1827.74 1972.18C1809.63 2033.86 1777.93 2079.51 1732.17 2103.99C1686.4 2128.47 1630.83 2129.51 1569.47 2110.34C1508.11 2091.17 1441 2051.8 1372.22 1995.53C1234.66 1883.01 1090.49 1702.99 972.336 1482.12C854.186 1261.26 784.448 1041.42 767.194 864.537C758.567 776.096 763.064 698.42 781.172 636.737C799.28 575.056 830.983 529.404 876.746 504.923C922.509 480.442 978.08 479.406 1039.44 498.577C1100.8 517.749 1167.91 557.118 1236.69 613.379C1374.25 725.901 1518.43 905.926 1636.58 1126.79Z" stroke="#2E2E2E"/>
<path d="M1639.63 1132.61C1753.91 1355.5 1819.8 1576.53 1833.96 1753.69C1841.04 1842.26 1835.19 1919.85 1816.01 1981.21C1796.83 2042.56 1764.33 2087.66 1718.15 2111.33C1671.96 2135.01 1616.38 2135.08 1555.37 2114.84C1494.35 2094.6 1427.94 2054.07 1360.15 1996.61C1224.57 1881.71 1083.56 1699.19 969.286 1476.3C855.008 1253.41 789.118 1032.38 774.954 855.228C767.872 766.649 773.724 689.064 792.905 627.706C812.086 566.35 844.582 521.259 890.765 497.58C936.948 473.901 992.529 473.836 1053.54 494.075C1114.56 514.314 1180.97 554.848 1248.76 612.302C1384.34 727.207 1525.35 909.721 1639.63 1132.61Z" stroke="#2E2E2E"/>
<path d="M1642.58 1138.49C1752.95 1363.34 1814.97 1585.48 1826.04 1762.86C1831.57 1851.55 1824.37 1929.02 1804.12 1990.03C1783.87 2051.04 1750.59 2095.56 1704 2118.43C1657.41 2141.3 1601.84 2140.39 1541.19 2119.09C1480.53 2097.79 1414.84 2056.11 1348.06 1997.48C1214.51 1880.22 1076.71 1695.28 966.339 1470.42C855.968 1245.57 793.945 1023.43 782.875 846.055C777.34 757.366 784.545 679.895 804.795 618.881C825.044 557.869 858.321 513.351 904.911 490.482C951.5 467.613 1007.07 468.518 1067.73 489.818C1128.38 511.12 1194.08 552.807 1260.85 611.435C1394.4 728.689 1532.2 913.635 1642.58 1138.49Z" stroke="#2E2E2E"/>
<path d="M1645.42 1144.42C1751.85 1371.16 1809.99 1594.35 1817.96 1771.89C1821.95 1860.66 1813.39 1938 1792.08 1998.65C1770.77 2059.3 1736.72 2103.23 1689.74 2125.28C1642.75 2147.33 1587.21 2145.46 1526.93 2123.1C1466.66 2100.75 1401.7 2057.92 1335.96 1998.13C1204.47 1878.57 1069.92 1691.24 963.493 1464.5C857.063 1237.76 798.927 1014.56 790.954 837.023C786.968 748.251 795.524 670.917 816.835 610.266C838.146 549.617 872.195 505.687 919.176 483.635C966.158 461.582 1021.71 463.457 1081.98 485.812C1142.25 508.169 1207.21 550.997 1272.95 610.781C1404.44 730.348 1538.99 917.671 1645.42 1144.42Z" stroke="#2E2E2E"/>
<path d="M1648.16 1150.39C1750.62 1378.96 1804.85 1603.13 1809.72 1780.78C1812.16 1869.61 1802.26 1946.78 1779.89 2007.05C1757.52 2067.32 1722.71 2110.65 1675.35 2131.88C1627.99 2153.11 1572.49 2150.27 1512.61 2126.86C1452.74 2103.46 1388.54 2059.5 1323.85 1998.58C1194.47 1876.73 1063.21 1687.09 960.752 1458.52C858.295 1229.96 804.063 1005.79 799.19 828.132C796.754 739.304 806.658 662.131 829.025 601.861C851.39 541.593 886.201 498.264 933.56 477.035C980.92 455.806 1036.43 458.649 1096.3 482.054C1156.17 505.459 1220.37 549.413 1285.06 610.336C1414.44 732.18 1545.7 921.823 1648.16 1150.39Z" stroke="#2E2E2E"/>
<path d="M1650.8 1156.41C1749.25 1386.73 1799.56 1611.82 1801.33 1789.53C1802.22 1878.39 1790.97 1955.37 1767.55 2015.24C1744.14 2075.11 1708.58 2117.83 1660.86 2138.23C1613.13 2158.63 1557.68 2154.81 1498.23 2130.37C1438.77 2105.92 1375.35 2060.85 1311.73 1998.81C1184.5 1874.73 1056.57 1682.82 958.115 1452.5C859.664 1222.18 809.352 997.098 807.58 819.386C806.694 730.529 817.944 653.541 841.359 593.671C864.773 533.802 900.335 491.087 948.058 470.688C995.78 450.289 1051.23 454.1 1110.68 478.546C1170.14 502.993 1233.56 548.061 1297.18 610.103C1424.41 734.186 1552.35 926.091 1650.8 1156.41Z" stroke="#2E2E2E"/>
<path d="M1653.33 1162.48C1747.75 1394.48 1794.12 1620.41 1792.79 1798.13C1792.13 1886.99 1779.53 1963.76 1755.08 2023.22C1730.62 2082.67 1694.32 2124.76 1646.25 2144.32C1598.18 2163.88 1542.8 2159.1 1483.79 2133.62C1424.76 2108.14 1362.14 2061.98 1299.61 1998.83C1174.57 1872.55 1050 1678.44 955.584 1446.44C861.167 1214.43 814.791 988.504 816.121 810.788C816.786 721.929 829.378 645.15 853.835 585.697C878.29 526.246 914.592 484.158 962.663 464.595C1010.73 445.032 1066.11 449.811 1125.13 475.29C1184.15 500.771 1246.78 546.939 1309.3 610.082C1434.35 736.367 1558.91 930.475 1653.33 1162.48Z" stroke="#2E2E2E"/>
<path d="M1655.75 1168.59C1746.11 1402.21 1788.53 1628.91 1784.1 1806.57C1781.89 1895.41 1767.96 1971.96 1742.47 2030.97C1716.98 2089.99 1679.95 2131.44 1631.54 2150.16C1583.13 2168.88 1527.85 2163.13 1469.29 2136.63C1410.72 2110.12 1348.91 2062.87 1287.49 1998.64C1164.67 1870.19 1043.51 1673.94 953.16 1440.32C862.806 1206.71 820.38 980.006 824.812 802.341C827.027 713.507 840.957 636.958 866.447 577.941C891.937 518.927 928.967 477.479 977.373 458.757C1025.78 440.036 1081.06 445.781 1139.63 472.286C1198.19 498.793 1260.01 546.047 1321.42 610.272C1444.24 738.72 1565.4 934.973 1655.75 1168.59Z" stroke="#2E2E2E"/>
<path d="M1658.07 1174.74C1744.33 1409.9 1782.8 1637.31 1775.27 1814.87C1771.5 1903.65 1756.24 1979.94 1729.72 2038.51C1703.2 2097.07 1665.46 2137.86 1616.73 2155.74C1568.01 2173.61 1512.83 2166.9 1454.74 2139.38C1396.64 2111.85 1335.66 2063.53 1275.38 1998.24C1154.82 1867.67 1037.1 1669.33 950.842 1434.17C864.579 1199.02 826.116 971.607 833.648 794.046C837.413 705.265 852.677 628.971 879.193 570.408C905.709 511.847 943.457 471.052 992.182 453.178C1040.91 435.304 1096.08 442.013 1154.17 469.537C1212.27 497.061 1273.25 545.387 1333.53 610.674C1454.09 741.246 1571.81 939.583 1658.07 1174.74Z" stroke="#2E2E2E"/>
<path d="M1660.28 1180.93C1742.43 1417.56 1776.92 1645.6 1766.29 1823.01C1760.97 1911.71 1744.38 1987.73 1716.84 2045.82C1689.31 2103.91 1650.86 2144.04 1601.83 2161.06C1552.8 2178.08 1497.75 2170.41 1440.14 2141.87C1382.54 2113.34 1322.41 2063.96 1263.28 1997.63C1145.01 1864.97 1030.78 1664.61 948.632 1427.98C866.486 1191.36 831.998 963.31 842.627 785.907C847.942 697.205 864.535 621.189 892.069 563.098C919.602 505.009 958.057 464.879 1007.09 447.858C1056.12 430.837 1111.16 438.508 1168.77 467.041C1226.38 495.576 1286.5 544.958 1345.63 611.287C1463.9 743.943 1578.14 944.305 1660.28 1180.93Z" stroke="#2E2E2E"/>
<path d="M1662.38 1187.16C1740.39 1425.19 1770.89 1653.8 1757.17 1830.99C1750.3 1919.58 1732.39 1995.3 1703.84 2052.9C1675.3 2110.5 1636.15 2149.95 1586.83 2166.12C1537.51 2182.28 1482.61 2173.65 1425.51 2144.11C1368.41 2114.58 1309.15 2064.15 1251.19 1996.8C1135.25 1862.1 1024.53 1659.78 946.531 1421.75C868.527 1183.73 838.024 955.116 851.748 777.927C858.61 689.33 876.527 613.616 905.071 556.014C933.614 498.414 972.763 458.961 1022.08 442.799C1071.4 426.636 1126.31 435.266 1183.41 464.801C1240.51 494.336 1299.76 544.761 1357.73 612.112C1473.66 746.812 1584.38 949.136 1662.38 1187.16Z" stroke="#2E2E2E"/>
<path d="M1664.38 1193.42C1738.21 1432.77 1764.72 1661.88 1747.91 1838.81C1739.5 1927.27 1720.27 2002.66 1690.72 2059.76C1661.18 2116.85 1621.34 2155.61 1571.75 2170.91C1522.16 2186.21 1467.41 2176.62 1410.84 2146.1C1354.26 2115.57 1295.9 2064.12 1239.11 1995.77C1125.55 1859.06 1018.38 1654.84 944.538 1415.49C870.701 1176.14 844.192 947.028 861.006 770.105C869.413 681.642 888.649 606.252 918.194 549.157C947.738 492.064 987.569 453.3 1037.16 438.001C1086.76 422.702 1141.5 432.289 1198.08 462.815C1254.65 493.343 1313.02 544.794 1369.8 613.146C1483.37 749.849 1590.54 954.075 1664.38 1193.42Z" stroke="#2E2E2E"/>
<path d="M1666.26 1199.72C1735.91 1440.33 1758.41 1669.86 1738.51 1846.47C1728.56 1934.77 1708.02 2009.81 1677.48 2066.38C1646.94 2122.95 1606.44 2161.01 1556.59 2175.45C1506.74 2189.88 1452.16 2179.34 1396.13 2147.83C1340.1 2116.32 1282.64 2063.86 1227.06 1994.52C1115.9 1855.86 1012.3 1649.79 942.655 1409.19C873.006 1168.59 850.5 939.051 870.399 762.448C880.349 674.145 900.897 599.102 931.434 542.531C961.97 485.963 1002.47 447.9 1052.33 433.469C1102.18 419.037 1156.75 429.578 1212.78 461.088C1268.82 492.598 1326.27 545.06 1381.86 614.393C1493.02 753.056 1596.61 959.122 1666.26 1199.72Z" stroke="#2E2E2E"/>
<path d="M1668.03 1206.05C1733.47 1447.83 1751.97 1677.73 1728.99 1853.96C1717.5 1942.07 1695.64 2016.75 1664.13 2072.78C1632.61 2128.8 1591.45 2166.15 1541.35 2179.71C1491.25 2193.27 1436.87 2181.78 1381.4 2149.3C1325.92 2116.81 1269.39 2063.36 1215.03 1993.07C1106.3 1852.48 1006.32 1644.64 940.882 1402.86C875.443 1161.08 856.946 931.183 879.925 754.954C891.414 666.839 913.269 592.166 944.789 536.137C976.307 480.11 1017.47 442.76 1067.56 429.201C1117.66 415.641 1172.04 427.133 1227.52 459.615C1282.99 492.099 1339.52 545.555 1393.89 615.848C1502.61 756.43 1602.59 964.273 1668.03 1206.05Z" stroke="#2E2E2E"/>
<path d="M1669.69 1212.41C1730.9 1455.3 1745.38 1685.48 1719.33 1861.29C1706.31 1949.19 1683.15 2023.47 1650.66 2078.94C1618.17 2134.41 1576.36 2171.03 1526.04 2183.71C1475.71 2196.4 1421.54 2183.96 1366.64 2150.51C1311.74 2117.07 1256.15 2062.63 1203.02 1991.4C1096.77 1848.94 1000.43 1639.39 939.22 1396.5C878.01 1153.61 863.529 923.431 889.579 747.63C902.605 659.728 925.759 585.448 958.252 529.977C990.743 474.509 1032.55 437.883 1082.88 425.2C1133.2 412.517 1187.37 424.957 1242.27 458.402C1297.17 491.849 1352.76 546.284 1405.89 617.514C1512.15 759.973 1608.48 969.528 1669.69 1212.41Z" stroke="#2E2E2E"/>
<path d="M1671.24 1218.8C1728.21 1462.72 1738.67 1693.12 1709.55 1868.44C1695 1956.1 1670.55 2029.97 1637.09 2084.86C1603.64 2139.75 1561.2 2175.65 1510.66 2187.45C1460.12 2199.25 1406.17 2185.87 1351.87 2151.47C1297.56 2117.07 1242.92 2061.67 1191.05 1989.53C1087.3 1845.23 994.631 1634.03 937.669 1390.11C880.708 1146.19 870.246 915.793 899.361 740.474C913.918 652.813 938.366 578.948 971.821 524.053C1005.28 469.16 1047.71 433.269 1098.25 421.467C1148.79 409.664 1202.74 423.047 1257.05 457.446C1311.35 491.845 1365.99 547.242 1417.87 619.389C1521.62 763.681 1614.28 974.885 1671.24 1218.8Z" stroke="#2E2E2E"/>
<path d="M1672.68 1225.22C1725.38 1470.09 1731.82 1700.64 1699.65 1875.42C1683.56 1962.82 1657.83 2036.25 1623.42 2090.55C1589.01 2144.85 1545.96 2179.99 1495.22 2190.91C1444.48 2201.83 1390.78 2187.51 1337.08 2152.17C1283.38 2116.83 1229.72 2060.48 1179.11 1987.44C1077.89 1841.36 988.926 1628.57 936.23 1383.7C883.535 1138.82 877.095 908.275 909.265 733.49C925.35 646.096 951.083 572.67 985.492 518.367C1019.9 464.066 1062.96 428.921 1113.7 418.003C1164.43 407.084 1218.14 421.406 1271.84 456.747C1325.54 492.089 1379.19 548.431 1429.8 621.473C1531.02 767.553 1619.99 980.343 1672.68 1225.22Z" stroke="#2E2E2E"/>
<path d="M1674.01 1231.66C1722.42 1477.41 1724.84 1708.04 1689.62 1882.24C1672.02 1969.33 1645 2042.3 1609.65 2096C1574.3 2149.69 1530.64 2184.08 1479.72 2194.11C1428.8 2204.14 1375.35 2188.88 1322.28 2152.61C1269.2 2116.33 1216.54 2059.06 1167.21 1985.15C1068.55 1837.33 983.318 1623.02 934.904 1377.26C886.49 1131.5 884.075 900.877 919.29 726.68C936.898 639.58 963.909 566.614 999.26 512.92C1034.61 459.228 1078.28 424.84 1129.2 414.809C1180.12 404.777 1233.56 420.034 1286.64 456.307C1339.71 492.581 1392.38 549.851 1441.7 623.764C1540.36 771.589 1625.6 985.899 1674.01 1231.66Z" stroke="#2E2E2E"/>
<path d="M1675.22 1238.12C1719.34 1484.68 1717.73 1715.31 1679.48 1888.87C1660.36 1975.65 1632.08 2048.13 1595.79 2101.2C1559.51 2154.27 1515.25 2187.89 1464.16 2197.03C1413.08 2206.17 1359.9 2189.98 1307.47 2152.79C1255.04 2115.59 1203.38 2057.41 1155.35 1982.65C1059.29 1833.13 977.807 1617.36 933.689 1370.8C889.572 1124.23 891.182 893.601 929.432 720.046C948.558 633.267 976.838 560.783 1013.12 507.714C1049.4 454.647 1093.66 421.026 1144.75 411.885C1195.84 402.744 1249.01 418.931 1301.44 456.125C1353.87 493.32 1405.53 551.5 1453.56 626.263C1549.62 775.787 1631.11 991.552 1675.22 1238.12Z" stroke="#2E2E2E"/>
<path d="M1676.33 1244.6C1716.13 1491.89 1710.5 1722.46 1669.22 1895.32C1648.59 1981.76 1619.05 2053.74 1581.84 2106.16C1544.64 2158.59 1499.8 2191.43 1448.56 2199.68C1397.32 2207.93 1344.44 2190.82 1292.67 2152.71C1240.89 2114.61 1190.25 2055.54 1143.54 1979.95C1050.1 1828.77 972.396 1611.61 932.588 1364.32C892.78 1117.02 898.416 886.451 939.689 713.589C960.326 627.157 989.866 555.178 1027.07 502.751C1064.27 450.325 1109.11 417.482 1160.35 409.234C1211.59 400.985 1264.47 418.098 1316.25 456.201C1368.02 494.306 1418.66 553.379 1465.38 628.969C1558.81 780.146 1636.52 997.3 1676.33 1244.6Z" stroke="#2E2E2E"/>
<path d="M1677.31 1251.1C1712.8 1499.05 1703.14 1729.49 1658.86 1901.6C1636.71 1987.66 1605.92 2059.11 1567.81 2110.88C1529.7 2162.65 1484.29 2194.71 1432.92 2202.06C1381.54 2209.41 1328.97 2191.38 1277.86 2152.38C1226.76 2113.38 1177.16 2053.43 1131.77 1977.03C1040.99 1824.25 967.086 1605.77 931.6 1357.82C896.114 1109.86 905.773 879.428 950.057 707.313C972.199 621.255 1002.99 549.802 1041.1 498.031C1079.22 446.263 1124.62 414.208 1176 406.855C1227.37 399.502 1279.95 417.535 1331.05 456.536C1382.15 495.538 1431.75 555.486 1477.14 631.88C1567.92 784.665 1641.83 1003.14 1677.31 1251.1Z" stroke="#2E2E2E"/>
<path d="M1678.19 1257.61C1709.34 1506.15 1695.66 1736.38 1648.38 1907.69C1624.74 1993.35 1592.71 2064.26 1553.7 2115.36C1514.69 2166.45 1468.73 2197.71 1417.23 2204.16C1365.73 2210.62 1313.48 2191.67 1263.07 2151.78C1212.66 2111.9 1164.11 2051.09 1120.06 1973.92C1031.96 1819.57 961.878 1599.84 930.725 1351.3C899.572 1102.77 913.251 872.535 960.532 701.219C984.173 615.56 1016.21 544.655 1055.22 493.558C1094.23 442.463 1140.19 411.204 1191.68 404.75C1243.18 398.295 1295.43 417.243 1345.84 457.129C1396.26 497.017 1444.8 557.822 1488.85 634.996C1576.95 789.342 1647.04 1009.08 1678.19 1257.61Z" stroke="#2E2E2E"/>
<path d="M1678.95 1264.14C1705.76 1513.18 1688.06 1743.14 1637.8 1913.61C1612.67 1998.84 1579.4 2069.17 1539.51 2119.58C1499.61 2169.99 1453.11 2200.44 1401.51 2206C1349.91 2211.55 1298 2191.69 1248.29 2150.93C1198.58 2110.17 1151.1 2048.53 1108.4 1970.6C1023.01 1814.74 956.775 1593.81 929.965 1344.77C903.154 1095.73 920.849 865.773 971.112 695.309C996.245 610.075 1029.51 539.74 1069.41 489.332C1109.3 438.925 1155.8 408.474 1207.4 402.918C1259 397.363 1310.92 417.22 1360.62 457.981C1410.34 498.743 1457.81 560.385 1500.51 638.316C1585.9 794.176 1652.14 1015.1 1678.95 1264.14Z" stroke="#2E2E2E"/>
<path d="M1679.6 1270.68C1702.06 1520.15 1680.35 1749.77 1627.12 1919.33C1600.5 2004.11 1566.01 2073.86 1525.24 2123.56C1484.47 2173.26 1437.45 2202.9 1385.76 2207.55C1334.07 2212.21 1282.51 2191.45 1233.52 2149.82C1184.53 2108.2 1138.14 2045.74 1096.81 1967.08C1014.15 1809.75 951.778 1587.7 929.318 1338.23C906.858 1088.76 928.563 859.146 981.794 689.584C1008.41 604.802 1042.9 535.059 1083.67 485.354C1124.44 435.652 1171.46 406.016 1223.15 401.363C1274.84 396.709 1326.4 417.469 1375.39 459.091C1424.38 500.714 1470.77 563.175 1512.1 641.84C1594.77 799.167 1657.13 1021.21 1679.6 1270.68Z" stroke="#2E2E2E"/>
<path d="M1680.13 1277.23C1698.23 1527.06 1672.52 1756.26 1616.34 1924.87C1588.25 2009.17 1552.55 2078.3 1510.91 2127.29C1469.29 2176.27 1421.75 2205.08 1369.99 2208.83C1318.23 2212.58 1267.04 2190.93 1218.78 2148.46C1170.52 2105.98 1125.23 2042.72 1085.28 1963.35C1005.37 1804.6 946.889 1581.5 928.786 1331.68C910.683 1081.85 936.393 852.652 992.575 684.045C1020.67 599.741 1056.37 530.61 1098 481.625C1139.63 432.641 1187.16 403.831 1238.92 400.08C1290.69 396.329 1341.88 417.986 1390.13 460.456C1438.39 502.928 1483.69 566.19 1523.64 645.563C1603.54 804.309 1662.03 1027.41 1680.13 1277.23Z" stroke="#2E2E2E"/>
<path d="M1680.55 1283.79C1694.29 1533.9 1664.58 1762.62 1605.46 1930.22C1575.91 2014.02 1539 2082.51 1496.52 2130.77C1454.04 2179.02 1406.02 2206.99 1354.2 2209.84C1302.38 2212.69 1251.57 2190.14 1204.07 2146.83C1156.56 2103.53 1112.37 2039.48 1073.81 1959.42C996.69 1799.31 942.108 1575.22 928.368 1325.12C914.628 1075.01 944.334 846.297 1003.45 678.697C1033.01 594.896 1069.91 526.398 1112.39 478.147C1154.87 429.897 1202.9 401.921 1254.72 399.074C1306.54 396.227 1357.34 418.774 1404.85 462.08C1452.36 505.387 1496.54 569.43 1535.1 649.489C1612.22 809.605 1666.81 1033.69 1680.55 1283.79Z" stroke="#2E2E2E"/>
<path d="M1680.85 1290.36C1690.22 1540.67 1656.53 1768.83 1594.5 1935.37C1563.48 2018.65 1525.39 2086.49 1482.07 2133.99C1438.76 2181.49 1390.25 2208.63 1338.39 2210.57C1286.52 2212.51 1236.12 2189.08 1189.38 2144.95C1142.63 2100.82 1099.57 2036.02 1062.41 1955.3C988.1 1793.86 937.438 1568.86 928.065 1318.55C918.692 1068.25 952.384 840.083 1014.42 673.54C1045.43 590.267 1083.53 522.424 1126.84 474.922C1170.16 427.42 1218.66 400.287 1270.53 398.345C1322.39 396.403 1372.79 419.832 1419.54 463.961C1466.28 508.091 1509.34 572.895 1546.5 653.615C1620.81 815.052 1671.48 1040.06 1680.85 1290.36Z" stroke="#2E2E2E"/>
<path d="M1681.04 1296.93C1686.04 1547.36 1648.37 1774.9 1583.44 1940.34C1550.98 2023.06 1511.71 2090.23 1467.57 2136.97C1423.43 2183.7 1374.46 2209.99 1322.57 2211.02C1270.68 2212.06 1220.7 2187.75 1174.73 2142.82C1128.76 2097.88 1086.84 2032.33 1051.09 1950.98C979.607 1788.27 932.879 1562.41 927.876 1311.98C922.873 1061.55 960.543 834.008 1025.47 668.573C1057.94 585.855 1097.21 518.687 1141.35 471.947C1185.48 425.209 1234.46 398.926 1286.34 397.89C1338.23 396.853 1388.22 421.159 1434.19 466.097C1480.16 511.036 1522.08 576.582 1557.82 657.938C1629.31 820.647 1676.03 1046.5 1681.04 1296.93Z" stroke="#2E2E2E"/>
<path d="M1681.11 1303.51C1681.74 1553.99 1640.11 1780.84 1572.3 1945.11C1538.4 2027.25 1497.96 2093.72 1453.01 2139.69C1408.07 2185.65 1358.64 2211.07 1306.74 2211.2C1254.84 2211.33 1205.29 2186.16 1160.12 2140.42C1114.94 2094.69 1074.17 2028.42 1039.85 1946.46C971.213 1782.52 928.434 1555.89 927.802 1305.41C927.17 1054.93 968.806 828.078 1036.61 663.801C1070.52 581.662 1110.95 515.19 1155.9 469.227C1200.85 423.267 1250.27 397.843 1302.17 397.712C1354.07 397.581 1403.62 422.755 1448.8 468.489C1493.98 514.223 1534.75 580.49 1569.07 662.458C1637.7 826.39 1680.48 1053.03 1681.11 1303.51Z" stroke="#2E2E2E"/>
<path d="M1681.07 1310.08C1677.33 1560.53 1631.74 1786.62 1561.08 1949.69C1525.75 2031.22 1484.16 2096.98 1438.41 2142.15C1392.67 2187.32 1342.81 2211.88 1290.92 2211.1C1239.03 2210.33 1189.92 2184.29 1145.55 2137.78C1101.17 2091.26 1061.57 2024.29 1028.68 1941.74C962.921 1776.63 924.103 1549.29 927.843 1298.83C931.583 1048.38 977.17 822.293 1047.83 659.225C1083.17 577.689 1124.76 511.933 1170.5 466.762C1216.24 421.593 1266.1 397.035 1317.99 397.81C1369.89 398.585 1418.99 424.621 1463.37 471.135C1507.74 517.652 1547.35 584.62 1580.23 667.174C1645.99 832.28 1684.81 1059.63 1681.07 1310.08Z" stroke="#2E2E2E"/>
<path d="M1680.92 1316.65C1672.81 1567 1623.28 1792.26 1549.78 1954.07C1513.03 2034.98 1470.3 2100 1423.77 2144.36C1377.25 2188.73 1326.97 2212.41 1275.1 2210.73C1223.23 2209.05 1174.58 2182.16 1131.03 2134.88C1087.47 2087.59 1049.04 2019.94 1017.6 1936.83C954.732 1770.6 919.888 1542.61 927.998 1292.26C936.109 1041.91 985.635 816.654 1059.13 654.844C1095.88 573.938 1138.62 508.917 1185.14 464.552C1231.66 420.188 1281.94 396.504 1333.82 398.184C1385.69 399.865 1434.33 426.753 1477.88 474.035C1521.44 521.319 1559.87 588.969 1591.31 672.084C1654.18 838.312 1689.03 1066.3 1680.92 1316.65Z" stroke="#2E2E2E"/>
<path d="M1680.64 1323.22C1668.17 1573.39 1614.72 1797.75 1538.4 1958.25C1500.25 2038.51 1456.39 2102.77 1409.1 2146.32C1361.81 2189.86 1311.12 2212.67 1259.29 2210.08C1207.45 2207.49 1159.28 2179.76 1116.56 2131.73C1073.84 2083.69 1036.59 2015.38 1006.61 1931.73C946.649 1764.43 915.79 1535.86 928.268 1285.69C940.746 1035.53 994.197 811.166 1070.51 650.663C1108.66 570.41 1152.52 506.146 1199.82 462.599C1247.1 419.054 1297.79 396.251 1349.63 398.836C1401.46 401.422 1449.63 429.155 1492.35 477.19C1535.07 525.227 1572.32 593.537 1602.3 677.188C1662.26 844.488 1693.12 1073.05 1680.64 1323.22Z" stroke="#2E2E2E"/>
<path d="M1680.26 1329.78C1663.42 1579.7 1606.06 1803.09 1526.96 1962.24C1487.41 2041.81 1442.43 2105.3 1394.39 2148.01C1346.35 2190.73 1295.27 2212.64 1243.49 2209.15C1191.71 2205.66 1144.03 2177.09 1102.15 2128.32C1060.28 2079.55 1024.23 2010.6 995.709 1926.43C938.677 1758.11 911.811 1529.04 928.653 1279.13C945.496 1029.22 1002.85 805.825 1081.95 646.678C1121.51 567.104 1166.48 503.615 1214.52 460.9C1262.57 418.187 1313.64 396.272 1365.43 399.762C1417.21 403.251 1464.88 431.821 1506.76 480.594C1548.64 529.369 1584.69 598.319 1613.2 682.481C1670.24 850.801 1697.1 1079.87 1680.26 1329.78Z" stroke="#2E2E2E"/>
<path d="M1679.76 1336.34C1658.56 1585.92 1597.31 1808.28 1515.45 1966.02C1474.51 2044.89 1428.44 2107.59 1379.65 2149.46C1330.87 2191.32 1279.42 2212.34 1227.71 2207.95C1175.99 2203.56 1128.82 2174.16 1087.81 2124.66C1046.78 2075.17 1011.94 2005.6 984.901 1920.95C930.815 1751.66 907.951 1522.16 929.152 1272.58C950.354 1023 1011.6 800.638 1093.47 642.896C1134.4 564.024 1180.48 501.329 1229.26 459.46C1278.04 417.591 1329.49 396.571 1381.21 400.964C1432.92 405.357 1480.09 434.755 1521.11 484.251C1562.13 533.75 1596.97 603.318 1624.01 687.964C1678.1 857.255 1700.96 1086.76 1679.76 1336.34Z" stroke="#2E2E2E"/>
<path d="M1679.15 1342.88C1653.59 1592.06 1588.47 1813.31 1503.87 1969.6C1461.56 2047.75 1414.4 2109.63 1364.89 2150.64C1315.39 2191.65 1263.58 2211.77 1211.95 2206.47C1160.32 2201.18 1113.67 2170.96 1073.52 2120.76C1033.37 2070.55 999.752 2000.39 974.19 1915.28C923.067 1745.07 904.212 1515.2 929.766 1266.03C955.32 1016.86 1020.44 795.603 1105.05 639.314C1147.35 561.168 1194.51 499.287 1244.02 458.275C1293.52 417.264 1345.33 397.146 1396.96 402.44C1448.59 407.735 1495.24 437.952 1535.39 488.156C1575.54 538.363 1609.16 608.529 1634.72 693.635C1685.85 863.843 1704.7 1093.71 1679.15 1342.88Z" stroke="#2E2E2E"/>
<path d="M1678.42 1349.42C1648.52 1598.11 1579.55 1818.19 1492.23 1972.98C1448.57 2050.38 1400.33 2111.42 1350.12 2151.57C1299.91 2191.71 1247.75 2210.92 1196.22 2204.72C1144.69 2198.53 1098.58 2167.5 1059.31 2116.6C1020.04 2065.7 987.652 1994.96 963.58 1909.42C915.435 1738.35 900.595 1508.19 930.493 1259.5C960.392 1010.81 1029.36 790.724 1116.68 635.936C1160.35 558.54 1208.58 497.492 1258.8 457.35C1309.01 417.209 1361.16 397.998 1412.69 404.193C1464.22 410.388 1510.33 441.414 1549.6 492.312C1588.87 543.212 1621.26 613.954 1645.33 699.492C1693.48 870.567 1708.32 1100.73 1678.42 1349.42Z" stroke="#2E2E2E"/>
<path d="M1677.58 1355.94C1643.34 1604.07 1570.54 1822.91 1480.53 1976.16C1435.53 2052.78 1386.23 2112.97 1335.33 2152.23C1284.42 2191.49 1231.94 2209.79 1180.53 2202.7C1129.11 2195.6 1083.55 2163.78 1045.18 2112.2C1006.8 2060.62 975.65 1989.33 953.074 1903.38C907.922 1731.49 897.101 1501.11 931.335 1252.98C965.569 1004.85 1038.37 786.002 1128.38 632.76C1173.39 556.139 1222.68 495.942 1273.59 456.682C1324.49 417.424 1376.97 399.126 1428.39 406.219C1479.8 413.312 1525.36 445.138 1563.74 496.714C1602.11 548.291 1633.26 619.588 1655.84 705.534C1700.99 877.423 1711.81 1107.81 1677.58 1355.94Z" stroke="#2E2E2E"/>
<path d="M1676.62 1362.44C1638.06 1609.94 1561.45 1827.48 1468.78 1979.13C1422.45 2054.95 1372.11 2114.28 1320.53 2152.64C1268.94 2191.01 1216.15 2208.39 1164.87 2200.4C1113.59 2192.41 1068.58 2159.79 1031.12 2107.55C993.651 2055.31 963.747 1983.48 942.675 1897.16C900.53 1724.51 893.731 1493.97 932.29 1246.47C970.85 998.98 1047.46 781.436 1140.13 629.789C1186.47 553.965 1236.8 494.637 1288.39 456.272C1339.97 417.908 1392.76 400.529 1444.04 408.518C1495.32 416.508 1540.33 449.124 1577.79 501.362C1615.26 553.601 1645.17 625.43 1666.24 711.757C1708.38 884.408 1715.18 1114.95 1676.62 1362.44Z" stroke="#2E2E2E"/>
<path d="M1675.55 1368.93C1632.68 1615.71 1552.29 1831.88 1456.98 1981.89C1409.33 2056.89 1357.97 2115.34 1305.72 2152.79C1253.48 2190.25 1200.39 2206.71 1149.25 2197.82C1098.12 2188.94 1053.69 2155.54 1017.14 2102.66C980.594 2049.78 951.949 1977.43 932.386 1890.75C893.26 1717.39 890.486 1486.77 933.359 1239.99C976.232 993.204 1056.63 777.031 1151.93 627.024C1199.58 552.02 1250.95 493.579 1303.19 456.12C1355.44 418.663 1408.52 402.207 1459.66 411.091C1510.79 419.974 1555.22 453.371 1591.77 506.254C1628.32 559.139 1656.96 631.48 1676.53 718.161C1715.65 891.521 1718.43 1122.14 1675.55 1368.93Z" stroke="#2E2E2E"/>
<path d="M1674.37 1375.39C1627.2 1621.39 1543.04 1836.13 1445.14 1984.45C1396.18 2058.61 1343.81 2116.15 1290.91 2152.69C1238.03 2189.23 1184.66 2204.75 1133.69 2194.98C1082.72 2185.21 1038.88 2151.04 1003.26 2097.53C967.635 2044.01 940.257 1971.18 922.21 1884.17C886.116 1710.15 887.367 1479.52 934.541 1233.52C981.714 987.524 1065.87 772.786 1163.78 624.466C1212.73 550.305 1265.11 492.77 1318 456.228C1370.89 419.688 1424.25 404.162 1475.23 413.936C1526.2 423.71 1570.04 457.878 1605.66 511.39C1641.28 564.905 1668.66 637.735 1686.7 724.744C1722.8 898.761 1721.55 1129.4 1674.37 1375.39Z" stroke="#2E2E2E"/>
<path d="M1673.08 1381.84C1621.62 1626.98 1533.73 1840.21 1433.25 1986.8C1383.01 2060.1 1329.63 2116.71 1276.11 2152.32C1222.59 2187.93 1168.96 2202.53 1118.17 2191.86C1067.38 2181.2 1024.14 2146.27 989.462 2092.15C954.78 2038.02 928.677 1964.72 912.151 1877.41C879.1 1702.79 884.376 1472.21 935.835 1227.08C987.295 981.939 1075.18 768.703 1175.66 622.114C1225.91 548.818 1279.28 492.206 1332.8 456.593C1386.32 420.982 1439.95 406.389 1490.74 417.051C1541.53 427.714 1584.77 462.641 1619.45 516.767C1654.13 570.896 1680.24 644.192 1696.76 731.503C1729.81 906.123 1724.54 1136.7 1673.08 1381.84Z" stroke="#2E2E2E"/>
<path d="M1671.67 1388.26C1615.94 1632.46 1524.34 1844.13 1421.32 1988.94C1369.81 2061.35 1315.46 2117.02 1261.32 2151.7C1207.19 2186.37 1153.31 2200.02 1102.71 2188.48C1052.11 2176.93 1009.49 2141.25 975.764 2086.53C942.031 2031.8 917.211 1958.06 902.212 1870.48C872.213 1695.31 881.513 1464.86 937.242 1220.65C992.972 976.452 1084.57 764.782 1187.59 619.969C1239.11 547.561 1293.46 491.889 1347.59 457.216C1401.73 422.544 1455.6 408.889 1506.2 420.437C1556.8 431.984 1599.42 467.66 1633.15 522.384C1666.88 577.109 1691.7 650.85 1706.7 738.436C1736.7 913.607 1727.4 1144.06 1671.67 1388.26Z" stroke="#2E2E2E"/>
<path d="M1670.15 1394.66C1610.17 1637.85 1514.89 1847.89 1409.36 1990.88C1356.59 2062.38 1301.27 2117.09 1246.54 2150.82C1191.81 2184.54 1137.7 2197.25 1087.31 2184.82C1036.93 2172.39 994.935 2135.98 962.164 2080.67C929.392 2025.37 905.863 1951.21 892.394 1863.37C865.457 1687.7 878.777 1457.45 938.761 1214.26C998.744 971.066 1094.02 761.027 1199.56 618.034C1252.32 546.537 1307.64 491.822 1362.37 458.099C1417.1 424.377 1471.21 411.664 1521.6 424.093C1571.99 436.522 1613.98 472.936 1646.75 528.24C1679.52 583.546 1703.05 657.708 1716.52 745.543C1743.46 921.21 1730.14 1151.46 1670.15 1394.66Z" stroke="#2E2E2E"/>
<path d="M1668.52 1401.03C1604.3 1643.13 1505.38 1851.48 1397.36 1992.61C1343.35 2063.17 1287.09 2116.91 1231.78 2149.68C1176.47 2182.44 1122.15 2194.2 1071.98 2180.9C1021.82 2167.59 980.47 2130.45 948.669 2074.58C916.868 2018.71 894.636 1944.15 882.702 1856.09C858.835 1679.98 876.172 1450 940.39 1207.89C1004.61 965.782 1103.54 757.438 1211.55 616.309C1265.56 545.743 1321.82 492.002 1377.13 459.239C1432.44 426.477 1486.76 414.711 1536.93 428.017C1587.09 441.323 1628.44 478.465 1660.24 534.333C1692.05 590.202 1714.28 664.764 1726.21 752.82C1750.08 928.931 1732.74 1158.92 1668.52 1401.03Z" stroke="#2E2E2E"/>
<path d="M1666.78 1407.36C1598.35 1648.31 1495.8 1854.9 1385.34 1994.12C1330.11 2063.73 1272.91 2116.49 1217.04 2148.28C1161.17 2180.07 1106.65 2190.89 1056.72 2176.71C1006.8 2162.53 966.104 2124.67 935.283 2068.25C904.462 2011.84 883.535 1936.9 873.14 1848.65C852.35 1672.15 873.697 1442.5 942.131 1201.55C1010.57 960.599 1113.12 754.014 1223.58 614.791C1278.81 545.179 1336 492.428 1391.88 460.635C1447.75 428.843 1502.27 418.027 1552.19 432.207C1602.12 446.387 1642.81 484.244 1673.63 540.658C1704.45 597.074 1725.38 672.013 1735.77 760.264C1756.56 936.764 1735.22 1166.41 1666.78 1407.36Z" stroke="#2E2E2E"/>
<path d="M1664.93 1413.67C1592.3 1653.39 1486.16 1858.16 1373.29 1995.43C1316.85 2064.07 1258.75 2115.81 1202.33 2146.62C1145.91 2177.44 1091.21 2187.3 1041.54 2172.25C991.868 2157.2 951.841 2118.64 922.009 2061.7C892.177 2004.75 872.561 1929.46 863.707 1841.04C846.001 1664.2 871.353 1434.96 943.982 1195.24C1016.61 955.524 1122.75 750.759 1235.62 613.485C1292.06 544.847 1350.17 493.103 1406.59 462.29C1463.01 431.478 1517.71 421.615 1567.38 436.664C1617.05 451.713 1657.07 490.275 1686.9 547.218C1716.74 604.164 1736.35 679.456 1745.21 767.875C1762.91 944.711 1737.56 1173.95 1664.93 1413.67Z" stroke="#2E2E2E"/>
<path d="M1662.97 1419.95C1586.17 1658.36 1476.47 1861.24 1361.22 1996.52C1303.59 2064.17 1244.59 2114.89 1187.64 2144.71C1130.7 2174.54 1075.83 2183.44 1026.43 2167.53C977.033 2151.62 937.685 2112.36 908.852 2054.91C880.018 1997.45 861.719 1921.83 854.41 1833.26C839.793 1656.15 869.142 1427.38 945.943 1188.97C1022.74 950.552 1132.44 747.671 1247.69 612.388C1305.32 544.746 1364.32 494.023 1421.27 464.2C1478.22 434.378 1533.08 425.471 1582.48 441.384C1631.88 457.297 1671.23 496.552 1700.06 554.007C1728.9 611.465 1747.19 687.088 1754.5 775.648C1769.12 952.766 1739.77 1181.53 1662.97 1419.95Z" stroke="#2E2E2E"/>
<path d="M1660.9 1426.19C1579.95 1663.22 1466.73 1864.16 1349.13 1997.41C1290.33 2064.04 1230.46 2113.72 1173 2142.55C1115.54 2171.37 1060.53 2179.32 1011.41 2162.55C962.298 2145.77 923.641 2105.84 895.815 2047.89C867.988 1989.94 851.012 1914.01 845.25 1825.33C833.726 1647.98 867.063 1419.77 948.013 1182.73C1028.96 945.69 1142.19 744.755 1259.78 611.504C1318.58 544.877 1378.46 495.192 1435.92 466.367C1493.38 437.543 1548.39 429.595 1597.5 446.368C1646.62 463.141 1685.27 503.077 1713.1 561.027C1740.93 618.979 1757.9 694.909 1763.66 783.584C1775.19 960.93 1741.85 1189.15 1660.9 1426.19Z" stroke="#2E2E2E"/>
<path d="M1658.72 1432.39C1573.65 1667.98 1456.93 1866.91 1337.03 1998.09C1277.08 2063.68 1216.35 2112.31 1158.39 2140.13C1100.44 2167.94 1045.3 2174.93 996.481 2157.3C947.666 2139.67 909.713 2099.07 882.902 2040.64C856.091 1982.22 840.442 1906 836.229 1817.24C827.802 1639.72 865.117 1412.12 950.192 1176.53C1035.27 940.938 1151.98 742.009 1271.88 610.831C1331.83 545.24 1392.57 496.608 1450.52 468.79C1508.48 440.973 1563.62 433.987 1612.43 451.614C1661.25 469.242 1699.2 509.846 1726.01 568.273C1752.82 626.701 1768.47 702.917 1772.68 791.678C1781.11 969.199 1743.8 1196.8 1658.72 1432.39Z" stroke="#2E2E2E"/>
<path d="M1656.43 1438.55C1567.26 1672.62 1447.1 1869.48 1324.92 1998.55C1263.83 2063.08 1202.26 2110.65 1143.83 2137.45C1085.4 2164.25 1030.14 2170.27 981.644 2151.8C933.144 2133.32 895.905 2092.06 870.118 2033.17C844.33 1974.29 830.015 1897.81 827.351 1808.99C822.023 1631.35 863.304 1404.43 952.478 1170.36C1041.65 936.295 1161.82 739.434 1283.99 610.368C1345.08 545.834 1406.65 498.269 1465.09 471.467C1523.52 444.666 1578.77 438.642 1627.27 457.119C1675.77 475.596 1713.01 516.857 1738.79 575.742C1764.58 634.63 1778.9 711.107 1781.56 799.928C1786.89 977.569 1745.61 1204.48 1656.43 1438.55Z" stroke="#2E2E2E"/>
<path d="M1654.04 1444.67C1560.8 1677.15 1437.21 1871.88 1312.8 1998.8C1250.6 2062.26 1188.21 2108.74 1129.31 2134.52C1070.42 2160.3 1015.07 2165.35 966.905 2146.03C918.736 2126.71 882.222 2084.81 857.467 2025.48C832.711 1966.15 819.732 1889.44 818.619 1800.58C816.392 1622.88 861.628 1396.72 954.873 1164.24C1048.12 931.763 1171.7 737.029 1296.11 610.115C1358.31 546.657 1420.71 500.173 1479.6 474.395C1538.49 448.618 1593.84 443.56 1642.01 462.881C1690.18 482.201 1726.69 524.105 1751.45 583.432C1776.2 642.761 1789.18 719.476 1790.3 808.33C1792.52 986.037 1747.29 1212.2 1654.04 1444.67Z" stroke="#2E2E2E"/>
<path d="M1651.54 1450.75C1554.25 1681.57 1427.29 1874.11 1300.69 1998.84C1237.38 2061.2 1174.19 2106.59 1114.85 2131.33C1055.52 2156.08 1000.09 2160.17 952.269 2140.01C904.444 2119.85 868.668 2077.32 844.952 2017.57C821.235 1957.82 809.597 1880.89 810.034 1792.03C810.909 1614.31 860.085 1388.97 957.373 1158.16C1054.66 927.346 1181.62 734.798 1308.23 610.075C1371.53 547.712 1434.73 502.324 1494.06 477.578C1553.39 452.833 1608.82 448.741 1656.64 468.9C1704.47 489.058 1740.25 531.593 1763.96 591.342C1787.68 651.094 1799.32 728.024 1798.88 816.885C1798 994.603 1748.83 1219.94 1651.54 1450.75Z" stroke="#2E2E2E"/>
<path d="M1648.93 1456.79C1547.63 1685.87 1417.33 1876.17 1288.57 1998.67C1224.19 2059.91 1160.21 2104.19 1100.45 2127.9C1040.7 2151.61 985.206 2154.73 937.741 2133.74C890.275 2112.75 855.246 2069.6 832.576 2009.44C809.906 1949.29 799.612 1872.16 801.6 1783.33C805.577 1605.65 858.678 1381.21 959.98 1152.13C1061.28 923.044 1191.58 732.741 1320.35 610.246C1384.73 548.998 1448.71 504.72 1508.46 481.013C1568.22 457.307 1623.71 454.183 1671.17 475.173C1718.64 496.163 1753.67 539.316 1776.34 599.47C1799.01 659.627 1809.3 736.748 1807.31 825.587C1803.34 1003.26 1750.24 1227.71 1648.93 1456.79Z" stroke="#2E2E2E"/>
<path d="M1646.22 1462.78C1540.94 1690.05 1407.33 1878.05 1276.45 1998.28C1211.01 2058.4 1146.27 2101.55 1086.11 2124.21C1025.95 2146.87 970.416 2149.03 923.323 2127.21C876.231 2105.4 841.961 2061.64 820.344 2001.1C798.727 1940.56 789.781 1863.27 793.319 1774.48C800.396 1596.9 857.406 1373.41 962.69 1146.14C1067.97 918.858 1201.58 730.858 1332.46 610.629C1397.9 550.514 1462.64 507.359 1522.8 484.699C1582.96 462.039 1638.5 459.885 1685.59 481.7C1732.68 503.515 1766.95 547.273 1788.57 607.813C1810.19 668.356 1819.13 745.646 1815.59 834.437C1808.52 1012.02 1751.51 1235.5 1646.22 1462.78Z" stroke="#2E2E2E"/>
</svg>
